<?xml version="1.0" standalone="no"?><!DOCTYPE svg PUBLIC "-//W3C//DTD SVG 1.1//EN" "http://www.w3.org/Graphics/SVG/1.1/DTD/svg11.dtd"><svg t="1505136836350" class="icon" style="" viewBox="0 0 1024 1024" version="1.1" xmlns="http://www.w3.org/2000/svg" p-id="15241" xmlns:xlink="http://www.w3.org/1999/xlink" width="200" height="200"><defs><style type="text/css"></style></defs><path d="M753.5 1013.5 628.1 1013.5l-62.7 0L440 1013.5l-62.7 0L251.9 1013.5 1.2 1013.5l0-31.4 0-31.3L1.2 198.5l250.8 0L252 10.4l501.6 0 0 188.1 250.8 0 0 752.3 0 31.3 0 31.4L753.5 1013.5 753.5 1013.5zM251.9 261.2 63.9 261.2l0 689.6 188.1 0L252 261.2 251.9 261.2zM440 950.8l125.4 0L565.4 825.4 440 825.4 440 950.8 440 950.8zM690.8 198.5 690.8 73.1 314.6 73.1l0 125.4 0 752.3 62.7 0L377.3 825.4l0-62.7L440 762.7l125.4 0 62.7 0 0 62.7 0 125.4 62.7 0L690.8 198.5 690.8 198.5zM941.6 261.2 753.5 261.2l0 689.6 188.1 0L941.6 261.2 941.6 261.2zM878.9 449.3l-62.7 0 0-62.7 62.7 0L878.9 449.3 878.9 449.3zM878.9 637.4l-62.7 0 0-62.7 62.7 0L878.9 637.4 878.9 637.4zM878.9 825.4l-62.7 0 0-62.7 62.7 0L878.9 825.4 878.9 825.4zM377.3 574.6l250.8 0 0 62.7L377.3 637.3 377.3 574.6 377.3 574.6zM377.3 386.6l250.8 0 0 62.7L377.3 449.3 377.3 386.6 377.3 386.6zM377.3 198.5l250.8 0 0 62.7L377.3 261.2 377.3 198.5 377.3 198.5zM189.2 449.3l-62.7 0 0-62.7 62.7 0L189.2 449.3 189.2 449.3zM189.2 637.4l-62.7 0 0-62.7 62.7 0L189.2 637.4 189.2 637.4zM189.2 825.4l-62.7 0 0-62.7 62.7 0L189.2 825.4 189.2 825.4z" p-id="15242" fill="#ff6666"></path></svg>