<?xml version="1.0" standalone="no"?><!DOCTYPE svg PUBLIC "-//W3C//DTD SVG 1.1//EN" "http://www.w3.org/Graphics/SVG/1.1/DTD/svg11.dtd"><svg t="1505137040282" class="icon" style="" viewBox="0 0 1024 1024" version="1.1" xmlns="http://www.w3.org/2000/svg" p-id="21080" xmlns:xlink="http://www.w3.org/1999/xlink" width="200" height="200"><defs><style type="text/css"></style></defs><path d="M572.467675 249.54345c0-34.552957-27.922956-62.58336-62.337767-62.58336-34.419927 0-62.313208 28.030403-62.313208 62.58336 0 34.58161 27.89328 62.58336 62.313208 62.58336C544.545742 312.125787 572.467675 284.125059 572.467675 249.54345L572.467675 249.54345zM572.467675 249.54345" p-id="21081" fill="#ffcf00"></path><path d="M510.129908 686.266999c0 0 228.745774-226.849588 228.741681-425.348478 0-198.496843-228.741681-198.496843-228.741681-198.496843s-228.746798 0-228.746798 198.496843C281.38311 459.416388 510.129908 686.266999 510.129908 686.266999L510.129908 686.266999zM349.892437 233.755882c1.493004-6.604418 3.982708-12.860912 6.501064-19.117406 0.892323-2.193968 1.38044-4.467755 2.38021-6.635117 2.683109-5.767354 6.175653-11.100826 9.668197-16.464997 1.733481-2.651386 3.115967-5.440919 5.012154-8.016581 2.784416-3.680832 6.119371-6.933923 9.259898-10.371208 3.601015-3.977591 7.0383-8.04114 11.127432-11.698436 1.733481-1.544169 3.767813-2.789533 5.578042-4.252861 6.068206-4.955872 12.3247-9.69378 19.280112-13.781888 0.24457-0.163729 0.490164-0.24457 0.733711-0.3776 16.818037-9.830903 35.990702-17.198707 57.407478-20.936845 10.697643-1.922792 21.772886-2.952238 33.120328-2.952238 0.055259 0 0.110517-0.026606 0.166799-0.026606l0.076748 0c11.538801 0 22.747073 1.111311 33.608445 3.086291 5.904477 1.060145 11.264555 2.952238 16.842597 4.552689 4.767584 1.326205 9.724479 2.356674 14.298658 4.090155 4.660136 1.760087 8.831132 4.114714 13.241582 6.226818 5.256724 2.493797 10.564613 4.849448 15.465227 7.801686 2.167363 1.38044 4.060479 2.976798 6.17463 4.41045 30.841426 20.825304 53.103452 50.614771 60.604286 85.222987 2.030239 8.745175 3.086291 17.576307 3.086291 26.403347 0 141.79033-163.399487 340.288197-163.399487 340.288197S346.750887 402.708851 346.750887 260.918521C346.750887 251.791653 347.863221 242.694461 349.892437 233.755882L349.892437 233.755882zM349.892437 233.755882" p-id="21082" fill="#ffcf00"></path><path d="M926.053736 478.319923c-3.466961-17.331737-103.988376 6.92983-145.582703 20.795629 0 0-19.199271 55.570643 0 62.393026 23.369244 8.286734 83.188654-20.794605 83.188654-20.794605l0 270.337031c0 0-211.414037 86.630033-228.745774 83.167165-17.33276-3.467985-228.746798-93.564979-249.542426-83.167165-20.798698 10.400884-228.745774 62.367443-228.745774 62.367443L156.625712 603.102904c0 0 96.242971-23.589254 103.988376-41.59535 9.317203-21.798469 6.930853-72.79084-62.394049-41.594327-69.323878 31.197536-103.988376 62.394049-103.988376 62.394049L94.231663 915.012773c0 0 20.799722 55.460126 62.394049 41.59535 41.594327-13.864776 228.745774-83.189677 228.745774-83.189677s221.812875 79.725786 249.542426 83.189677c27.729551 3.466961 290.273083-76.906577 291.139823-103.985306C928.894434 761.306043 929.491021 495.65166 926.053736 478.319923L926.053736 478.319923zM926.053736 478.319923" p-id="21083" fill="#ffcf00"></path></svg>