<?xml version="1.0" standalone="no"?><!DOCTYPE svg PUBLIC "-//W3C//DTD SVG 1.1//EN" "http://www.w3.org/Graphics/SVG/1.1/DTD/svg11.dtd"><svg t="1505137058088" class="icon" style="" viewBox="0 0 1024 1024" version="1.1" xmlns="http://www.w3.org/2000/svg" p-id="21788" xmlns:xlink="http://www.w3.org/1999/xlink" width="200" height="200"><defs><style type="text/css"></style></defs><path d="M331.346035 525.332656l-65.551972 0c3.118014-147.143245 117.080555-267.345907 261.628696-280.211936l0 65.917292C419.0444 323.592956 334.386278 414.384775 331.346035 525.332656z" p-id="21789" fill="#43d480"></path><path d="M205.560214 525.332656 107.194906 525.332656c3.222391-234.582713 188.241268-425.444669 420.22683-438.7323l0 98.365308C349.638657 198.021006 208.733487 345.032244 205.560214 525.332656z" p-id="21790" fill="#43d480"></path><path d="M480.088708 710.507076c16.720823 2.409886 33.626865-2.803859 46.101991-14.152325 33.602306-30.66644 73.547063-68.619844 100.751658-99.206466 0.132006 0.077771 0.236384 0.183172 0.367367 0.287549 26.002211-26.970258 57.033971-65.080228 82.614579-97.81477 21.938662-28.071336 12.554944-69.012793-18.662035-85.026512-7.861038-4.036943-15.384385-8.650007-22.512736-13.811564L842.65428 110.739127c61.85272 30.167067 104.788601 95.064123 92.938716 185.40978-6.760984 47.25935-114.40768 216.864166-248.28683 359.264387C544.250006 807.616788 373.41313 931.747923 333.964676 936.753937c-80.46359 7.887644-147.875932-13.682627-186.433086-80.099293l276.991592-194.006576C444.757015 686.628226 447.613062 705.9462 480.088708 710.507076z" p-id="21791" fill="#43d480"></path><path d="M619.65744 309.542962 736.737996 113.858164c15.802918-26.548656 47.360657-36.931121 85.995583-13.995759L648.042931 391.868969C609.538989 368.961236 603.773681 335.990311 619.65744 309.542962z" p-id="21792" fill="#43d480"></path><path d="M139.670551 754.303558 323.849294 619.819634c24.899086-18.270109 58.055231-15.542998 84.659145 20.706601L133.69342 841.189418l-6.210445-8.465812C109.29166 807.850102 114.796024 772.546038 139.670551 754.303558z" p-id="21793" fill="#43d480"></path></svg>