<?xml version="1.0" standalone="no"?><!DOCTYPE svg PUBLIC "-//W3C//DTD SVG 1.1//EN" "http://www.w3.org/Graphics/SVG/1.1/DTD/svg11.dtd"><svg t="1506481095219" class="icon" style="" viewBox="0 0 1170 1024" version="1.1" xmlns="http://www.w3.org/2000/svg" p-id="1896" xmlns:xlink="http://www.w3.org/1999/xlink" width="228.515625" height="200"><defs><style type="text/css"></style></defs><path d="M723.21 822.589c-49.727 0-90.039 40.312-90.039 90.039s40.312 90.039 90.039 90.039c248.578-0.042 450.078-201.543 450.121-450.117v-360.086c-0.042-99.423-80.649-180.005-180.078-180.005 0 0 0 0 0 0h-180.005c-0.042 0-0.095 0-0.146 0-99.373 0-179.931 80.559-179.931 179.931 0 0.025 0 0.051 0 0.076v180.075c0 0.023 0 0.047 0 0.074 0 99.373 80.559 179.931 179.931 179.931 0.051 0 0.103 0 0.154 0h179.997c0 149.142-120.903 270.043-270.043 270.043M183.123 552.546h180.005c0 149.142-120.903 270.043-270.043 270.043-49.727 0-90.039 40.312-90.039 90.039 0 49.727 40.312 90.039 90.039 90.039 248.578-0.042 450.078-201.543 450.121-450.117v-360.086c-0.042-99.423-80.649-180.005-180.078-180.005 0 0 0 0 0 0h-180.005c-0.042 0-0.095 0-0.146 0-99.373 0-179.931 80.559-179.931 179.931 0 0.025 0 0.051 0 0.076v180.075c0 0.023 0 0.047 0 0.074 0 99.373 80.559 179.931 179.931 179.931 0.051 0 0.103 0 0.154 0z" fill="#E9E9E9" p-id="1897"></path></svg>