<?xml version="1.0" standalone="no"?><!DOCTYPE svg PUBLIC "-//W3C//DTD SVG 1.1//EN" "http://www.w3.org/Graphics/SVG/1.1/DTD/svg11.dtd"><svg t="1506481151448" class="icon" style="" viewBox="0 0 1170 1024" version="1.1" xmlns="http://www.w3.org/2000/svg" p-id="2560" xmlns:xlink="http://www.w3.org/1999/xlink" width="228.515625" height="200"><defs><style type="text/css"></style></defs><path d="M450.121143 180.077714a90.038857 90.038857 0 0 0 0-180.077714A450.194286 450.194286 0 0 0 0 450.121143v360.082286a180.077714 180.077714 0 0 0 180.077714 180.004571h180.004572a179.931429 179.931429 0 0 0 180.077714-180.004571V630.125714a179.931429 179.931429 0 0 0-180.077714-180.004571H180.077714a270.043429 270.043429 0 0 1 270.043429-270.043429m540.086857 270.043429h-180.004571a270.043429 270.043429 0 0 1 270.043428-270.043429 90.038857 90.038857 0 0 0 0-180.077714 450.194286 450.194286 0 0 0-450.121143 450.121143v360.082286a180.077714 180.077714 0 0 0 180.077715 180.004571h180.004571A179.931429 179.931429 0 0 0 1170.285714 810.203429V630.125714a179.931429 179.931429 0 0 0-180.077714-180.004571" fill="#E9E9E9" p-id="2561"></path></svg>