<?xml version="1.0" standalone="no"?><!DOCTYPE svg PUBLIC "-//W3C//DTD SVG 1.1//EN" "http://www.w3.org/Graphics/SVG/1.1/DTD/svg11.dtd"><svg t="1505137082738" class="icon" style="" viewBox="0 0 1027 1024" version="1.1" xmlns="http://www.w3.org/2000/svg" p-id="22507" xmlns:xlink="http://www.w3.org/1999/xlink" width="200.5859375" height="200"><defs><style type="text/css"></style></defs><path d="M973.64992 84.44928H59.8272c-32.39936 0-58.32704 19.584-58.32704 52.224v587.4688c0 26.10688 25.92256 52.21376 51.85024 52.21376h366.33088l-9.8816 104.44288H338.5088c-25.92256 0-45.36832 32.63488-45.36832 58.74688h434.23232c6.48192-19.584-12.95872-58.74688-38.89152-58.74688h-71.29088l-9.87136-104.44288h366.33088c25.92256 0 51.85024-26.112 51.85024-52.21376V136.67328c0-32.64-25.92768-52.224-51.85024-52.224zM967.168 626.23232H66.30912V143.19616H967.168v483.03616zM312.59136 312.9088c15.26784 0 30.44352-6.32832 41.24672-17.20832 10.79296-10.86976 17.08032-26.15296 17.08032-41.53344 0-15.3856-6.28736-30.6688-17.08032-41.54368-10.79808-10.86976-25.97376-17.2032-41.24672-17.2032-15.27296 0-30.44864 6.33344-41.25184 17.2032-10.79808 10.88-17.08544 26.15808-17.08544 41.54368 0 15.38048 6.28736 30.66368 17.08544 41.53344 10.79808 10.88 25.97376 17.20832 41.25184 17.20832z m479.5904 78.336h-246.28224v169.71264h246.28224V391.2448z m0-169.71776h-246.28224v19.584h246.28224v-19.584z m0 39.16288h-246.28224v19.584h246.28224v-19.584zM487.57248 391.2448H241.29536v19.57888H487.5776v-19.57888z m0 39.15776H241.29536v19.57888H487.5776v-19.57888z m0 32.64H241.29536v19.57888H487.5776v-19.57888z m0 39.16288H241.29536v19.584H487.5776v-19.584z m0 39.16288H241.29536v19.58912H487.5776v-19.58912z" fill="#6666cc" p-id="22508"></path></svg>